<svg width="80" height="80" viewBox="0 0 80 80" fill="none" xmlns="http://www.w3.org/2000/svg">
    <defs>
        <!-- Premium Emerald Gradient -->
        <linearGradient id="emeraldGradient" x1="0%" y1="0%" x2="100%" y2="100%">
            <stop offset="0%" stop-color="#34D399" /> <!-- Emerald 400 -->
            <stop offset="50%" stop-color="#10B981" /> <!-- Emerald 500 -->
            <stop offset="100%" stop-color="#065F46" /> <!-- Emerald 800 -->
        </linearGradient>
        
        <!-- Deep Black/Slate Gradient -->
        <linearGradient id="blackGradient" x1="0%" y1="0%" x2="0%" y2="100%">
            <stop offset="0%" stop-color="#1E293B" /> <!-- Slate 800 -->
            <stop offset="100%" stop-color="#020617" /> <!-- Slate 950 -->
        </linearGradient>

        <!-- Glow Effect -->
        <filter id="emeraldGlow" x="-50%" y="-50%" width="200%" height="200%">
            <feGaussianBlur stdDeviation="2" result="blur" />
            <feComposite in="SourceGraphic" in2="blur" operator="over" />
        </filter>
    </defs>

    <!-- Logo Icon Group -->
    <g transform="translate(10, 10)">
        <!-- Outer Hexagon Border (Emerald) -->
        <path d="M30 2 L58 17 V45 L30 60 L2 45 V17 Z" 
              fill="none" 
              stroke="url(#emeraldGradient)" 
              stroke-width="2.5" />
        
        <!-- Inner Shield (Black Gradient) -->
        <path d="M30 8 L52 20 V42 L30 54 L8 42 V20 Z" 
              fill="url(#blackGradient)" 
              stroke="none" />

        <!-- Tech Circuit Lines (Emerald) -->
        <path d="M30 8 V20 M52 20 L42 26 M8 20 L18 26 M30 54 V42" 
              stroke="url(#emeraldGradient)" 
              stroke-width="1.5" 
              stroke-opacity="0.6" />

        <!-- Central Node/Core (Emerald Glow) -->
        <circle cx="30" cy="31" r="5" fill="url(#emeraldGradient)" filter="url(#emeraldGlow)" />
        <circle cx="30" cy="31" r="2" fill="#FFFFFF" />
        
        <!-- Connecting Nodes -->
        <circle cx="18" cy="26" r="2" fill="#34D399" />
        <circle cx="42" cy="26" r="2" fill="#34D399" />
        <circle cx="30" cy="42" r="2" fill="#34D399" />
    </g>
</svg>